<?xml version="1.0" encoding="UTF-8" standalone="no"?>
<svg xmlns:ffdec="https://www.free-decompiler.com/flash" xmlns:xlink="http://www.w3.org/1999/xlink" ffdec:objectType="shape" height="505.0px" width="505.0px" xmlns="http://www.w3.org/2000/svg">
  <g transform="matrix(1.0, 0.0, 0.0, 1.0, 252.5, 252.5)">
    <path d="M128.85 -128.9 Q154.95 -102.75 168.3 -71.3 182.2 -38.55 182.2 0.0 182.2 38.5 168.3 71.25 154.95 102.7 128.85 128.8 75.5 182.2 0.0 182.2 -13.4 182.2 -26.1 180.5 -84.95 172.7 -128.85 128.8 -182.2 75.5 -182.2 0.0 -182.2 -75.5 -128.85 -128.9 -84.95 -172.75 -26.1 -180.55 L0.0 -182.2 Q75.5 -182.2 128.85 -128.9 Z" fill="none" stroke="#cccccc" stroke-linecap="round" stroke-linejoin="round" stroke-width="1.0"/>
    <path d="M211.85 -137.4 Q224.2 -118.8 232.8 -98.65 252.0 -53.3 252.0 0.0 252.0 27.5 246.9 52.85 242.1 76.65 232.8 98.55 L228.05 109.0 227.0 111.15 225.85 113.4 Q219.6 125.65 211.85 137.3 L205.85 145.95 Q193.65 162.7 178.2 178.15 104.45 252.0 0.0 252.0 L-26.1 250.8 Q-113.8 242.6 -178.25 178.15 -252.0 104.4 -252.0 0.0 -252.0 -104.45 -178.25 -178.25 -113.8 -242.65 -26.1 -250.8 L0.0 -252.0 Q104.45 -252.0 178.2 -178.25 193.65 -162.8 205.85 -146.0 L211.85 -137.4 Z" fill="none" stroke="#cccccc" stroke-linecap="round" stroke-linejoin="round" stroke-width="1.0"/>
  </g>
</svg>
