<?xml version="1.0" encoding="UTF-8" standalone="no"?>
<svg xmlns:ffdec="https://www.free-decompiler.com/flash" xmlns:xlink="http://www.w3.org/1999/xlink" ffdec:objectType="shape" height="20.0px" width="20.0px" xmlns="http://www.w3.org/2000/svg">
  <g transform="matrix(1.0, 0.0, 0.0, 1.0, 10.0, 10.0)">
    <path d="M-10.0 0.05 L-10.0 0.0 Q-10.0 -4.15 -7.1 -7.05 -5.7 -8.45 -4.0 -9.2 -2.15 -10.0 0.0 -10.0 4.15 -10.0 7.05 -7.05 10.0 -4.15 10.0 0.0 L10.0 0.05 -10.0 0.05" fill="#ffffff" fill-rule="evenodd" stroke="none"/>
    <path d="M10.0 0.05 Q9.95 4.15 7.05 7.1 4.15 10.0 0.0 10.0 -2.15 10.0 -4.0 9.25 -5.7 8.5 -7.1 7.1 -10.0 4.15 -10.0 0.05 L10.0 0.05" fill="#666666" fill-rule="evenodd" stroke="none"/>
  </g>
</svg>
